ModelForces
version=1
nRows=4
nColumns=206
inDegrees=no

This file contains the forces exerted on a model during a simulation.

A force is a generalized force, meaning that it can be either a force (N) or a torque (Nm).

Units are S.I. units (second, meters, Newtons, ...)
Angles are in degrees.

endheader
time	glut_med1_r	glut_med2_r	glut_med3_r	glut_min1_r	glut_min2_r	glut_min3_r	semimem_r	semiten_r	bifemlh_r	bifemsh_r	sar_r	add_long_r	add_brev_r	add_mag1_r	add_mag2_r	add_mag3_r	tfl_r	pect_r	grac_r	glut_max1_r	glut_max2_r	glut_max3_r	iliacus_r	psoas_r	quad_fem_r	gem_r	peri_r	rect_fem_r	vas_med_r	vas_int_r	vas_lat_r	med_gas_r	lat_gas_r	soleus_r	tib_post_r	flex_dig_r	flex_hal_r	tib_ant_r	per_brev_r	per_long_r	per_tert_r	ext_dig_r	ext_hal_r	glut_med1_l	glut_med2_l	glut_med3_l	glut_min1_l	glut_min2_l	glut_min3_l	semimem_l	semiten_l	bifemlh_l	bifemsh_l	sar_l	add_long_l	add_brev_l	add_mag1_l	add_mag2_l	add_mag3_l	tfl_l	pect_l	grac_l	glut_max1_l	glut_max2_l	glut_max3_l	iliacus_l	psoas_l	quad_fem_l	gem_l	peri_l	rect_fem_l	vas_med_l	vas_int_l	vas_lat_l	med_gas_l	lat_gas_l	soleus_l	tib_post_l	flex_dig_l	flex_hal_l	tib_ant_l	per_brev_l	per_long_l	per_tert_l	ext_dig_l	ext_hal_l	ercspn_r	ercspn_l	intobl_r	intobl_l	extobl_r	extobl_l	femur_lat_meniscii_l.femur_lat_l.force.X	femur_lat_meniscii_l.femur_lat_l.force.Y	femur_lat_meniscii_l.femur_lat_l.force.Z	femur_lat_meniscii_l.femur_lat_l.torque.X	femur_lat_meniscii_l.femur_lat_l.torque.Y	femur_lat_meniscii_l.femur_lat_l.torque.Z	femur_lat_meniscii_l.meniscus_lat_l.force.X	femur_lat_meniscii_l.meniscus_lat_l.force.Y	femur_lat_meniscii_l.meniscus_lat_l.force.Z	femur_lat_meniscii_l.meniscus_lat_l.torque.X	femur_lat_meniscii_l.meniscus_lat_l.torque.Y	femur_lat_meniscii_l.meniscus_lat_l.torque.Z	femur_med_meniscii_l.femur_med_l.force.X	femur_med_meniscii_l.femur_med_l.force.Y	femur_med_meniscii_l.femur_med_l.force.Z	femur_med_meniscii_l.femur_med_l.torque.X	femur_med_meniscii_l.femur_med_l.torque.Y	femur_med_meniscii_l.femur_med_l.torque.Z	femur_med_meniscii_l.meniscus_med_l.force.X	femur_med_meniscii_l.meniscus_med_l.force.Y	femur_med_meniscii_l.meniscus_med_l.force.Z	femur_med_meniscii_l.meniscus_med_l.torque.X	femur_med_meniscii_l.meniscus_med_l.torque.Y	femur_med_meniscii_l.meniscus_med_l.torque.Z	femur_lat_meniscii_r.femur_lat_r.force.X	femur_lat_meniscii_r.femur_lat_r.force.Y	femur_lat_meniscii_r.femur_lat_r.force.Z	femur_lat_meniscii_r.femur_lat_r.torque.X	femur_lat_meniscii_r.femur_lat_r.torque.Y	femur_lat_meniscii_r.femur_lat_r.torque.Z	femur_lat_meniscii_r.meniscus_lat_r.force.X	femur_lat_meniscii_r.meniscus_lat_r.force.Y	femur_lat_meniscii_r.meniscus_lat_r.force.Z	femur_lat_meniscii_r.meniscus_lat_r.torque.X	femur_lat_meniscii_r.meniscus_lat_r.torque.Y	femur_lat_meniscii_r.meniscus_lat_r.torque.Z	femur_med_meniscii_r.femur_med_r.force.X	femur_med_meniscii_r.femur_med_r.force.Y	femur_med_meniscii_r.femur_med_r.force.Z	femur_med_meniscii_r.femur_med_r.torque.X	femur_med_meniscii_r.femur_med_r.torque.Y	femur_med_meniscii_r.femur_med_r.torque.Z	femur_med_meniscii_r.meniscus_med_r.force.X	femur_med_meniscii_r.meniscus_med_r.force.Y	femur_med_meniscii_r.meniscus_med_r.force.Z	femur_med_meniscii_r.meniscus_med_r.torque.X	femur_med_meniscii_r.meniscus_med_r.torque.Y	femur_med_meniscii_r.meniscus_med_r.torque.Z	femur_med_tibia_l.tibia_upper_l.force.X	femur_med_tibia_l.tibia_upper_l.force.Y	femur_med_tibia_l.tibia_upper_l.force.Z	femur_med_tibia_l.tibia_upper_l.torque.X	femur_med_tibia_l.tibia_upper_l.torque.Y	femur_med_tibia_l.tibia_upper_l.torque.Z	femur_med_tibia_l.femur_med_l.force.X	femur_med_tibia_l.femur_med_l.force.Y	femur_med_tibia_l.femur_med_l.force.Z	femur_med_tibia_l.femur_med_l.torque.X	femur_med_tibia_l.femur_med_l.torque.Y	femur_med_tibia_l.femur_med_l.torque.Z	femur_lat_tibia_l.tibia_upper_l.force.X	femur_lat_tibia_l.tibia_upper_l.force.Y	femur_lat_tibia_l.tibia_upper_l.force.Z	femur_lat_tibia_l.tibia_upper_l.torque.X	femur_lat_tibia_l.tibia_upper_l.torque.Y	femur_lat_tibia_l.tibia_upper_l.torque.Z	femur_lat_tibia_l.femur_lat_l.force.X	femur_lat_tibia_l.femur_lat_l.force.Y	femur_lat_tibia_l.femur_lat_l.force.Z	femur_lat_tibia_l.femur_lat_l.torque.X	femur_lat_tibia_l.femur_lat_l.torque.Y	femur_lat_tibia_l.femur_lat_l.torque.Z	femur_med_tibia_r.tibia_upper_r.force.X	femur_med_tibia_r.tibia_upper_r.force.Y	femur_med_tibia_r.tibia_upper_r.force.Z	femur_med_tibia_r.tibia_upper_r.torque.X	femur_med_tibia_r.tibia_upper_r.torque.Y	femur_med_tibia_r.tibia_upper_r.torque.Z	femur_med_tibia_r.femur_med_r.force.X	femur_med_tibia_r.femur_med_r.force.Y	femur_med_tibia_r.femur_med_r.force.Z	femur_med_tibia_r.femur_med_r.torque.X	femur_med_tibia_r.femur_med_r.torque.Y	femur_med_tibia_r.femur_med_r.torque.Z	femur_lat_tibia_r.tibia_upper_r.force.X	femur_lat_tibia_r.tibia_upper_r.force.Y	femur_lat_tibia_r.tibia_upper_r.force.Z	femur_lat_tibia_r.tibia_upper_r.torque.X	femur_lat_tibia_r.tibia_upper_r.torque.Y	femur_lat_tibia_r.tibia_upper_r.torque.Z	femur_lat_tibia_r.femur_lat_r.force.X	femur_lat_tibia_r.femur_lat_r.force.Y	femur_lat_tibia_r.femur_lat_r.force.Z	femur_lat_tibia_r.femur_lat_r.torque.X	femur_lat_tibia_r.femur_lat_r.torque.Y	femur_lat_tibia_r.femur_lat_r.torque.Z	aACL_R	pACL_R	aPCL_R	pPCL_R	aMCL_R	mMCL_R	pMCL_R	aLCL_R	mLCL_R	pLCL_R	aPCL_L	pPCL_L	aMCL_L	aLCL_L	ground_prescribedForce_0_fx	ground_prescribedForce_0_fy	ground_prescribedForce_0_fz
      0.74800257	      7.54759127	      5.66550547	      6.06444757	      2.65882365	      3.17882519	      3.19259005	      8.89591800	      4.07700510	      7.93778870	      7.28668782	      0.00000000	      5.61303274	      0.00000000	      2.91879708	      2.45361359	      3.98725138	      3.99363719	      2.23861887	      1.55628280	      3.65591434	      5.55576014	      4.14723144	     22.64715525	     12.96635229	      3.62651811	      2.85424424	      4.08984547	     10.79427008	      6.91498135	      7.01085093	      8.89649125	      5.47439016	      2.90828769	      9.01852749	     13.42368293	      2.94755254	      2.36342537	     17.37804392	      4.08036714	      8.42228903	     11.51699798	      9.66144682	      2.53248887	      7.54759127	      5.66550547	      6.06444757	      2.65882365	      3.17882519	      3.19259005	      8.74472693	      4.08304193	      7.68246587	      7.21570991	      1.51967940	      5.61303274	      4.14088829	      2.91879708	      2.45361359	      3.98725138	      4.09689407	      2.23861887	      1.55863567	      3.65591434	      5.55576014	      4.14723144	     22.64715525	     12.96635229	      3.62651811	      2.85424424	      4.08984547	     10.66664005	      6.59238846	      7.56199031	      8.13118473	     13.95257652	      6.47850221	     31.08552456	     42.35889077	      2.58035435	      2.83867580	      8.45139954	      4.33380980	     12.44621590	      2.00580679	      5.36386253	      1.70251935	     25.00553329	     25.00553329	      8.99973656	      8.99973656	     26.80437246	     26.80437246	      2.76307435	     50.99597937	     -9.56042239	      5.21997485	     -0.02578839	      1.48581788	     -2.76307435	    -50.99597937	      9.56042239	     -1.74637766	      0.02558040	     -0.48301696	     -3.31599387	     20.97615968	     -3.40468921	      0.94473225	     -0.02138609	     -1.00501789	      3.31599387	    -20.97615968	      3.40468921	      0.28075727	      0.00368718	     -0.29758878	     27.53095237	     91.33162059	     18.66086948	     -9.98174525	      0.62498986	     11.65318987	    -27.53095237	    -91.33162059	    -18.66086948	      3.12657309	     -0.78944295	     -0.73466404	     43.99856129	     86.06164346	     -1.56978258	      2.42641639	     -0.89931776	     18.70251069	    -43.99856129	    -86.06164346	      1.56978258	     -1.48751225	      0.73418920	     -1.43948544	      0.00000000	      0.00000000	      0.00000000	      0.00000000	      0.00000000	      0.00000000	      0.00000000	      0.00000000	      0.00000000	      0.00000000	      0.00000000	      0.00000000	      0.00000000	      0.00000000	      0.00000000	      0.00000000	      0.00000000	      0.00000000	      0.00000000	      0.00000000	      0.00000000	      0.00000000	      0.00000000	      0.00000000	      0.00000000	      0.00000000	      0.00000000	      0.00000000	      0.00000000	      0.00000000	      0.00000000	      0.00000000	      0.00000000	      0.00000000	      0.00000000	      0.00000000	      0.00000000	      0.00000000	      0.00000000	      0.00000000	      0.00000000	      0.00000000	      0.00000000	      0.00000000	      0.00000000	      0.00000000	      0.00000000	      0.00000000	      9.16313044	     66.19262995	      0.00000000	      0.00000000	      0.00000000	      8.39833517	     24.27454604	      1.98369930	      0.00000000	      4.37643393	      0.00000000	      0.00000000	      0.00000001	      0.00000000	    110.00000000	      0.00000000	      0.00000000
      0.75070449	      7.54752048	      5.66545668	      6.06439470	      2.65880173	      3.17880148	      3.19256017	      8.89440044	      4.07634976	      7.94049309	      7.28409384	      0.00000000	      5.61298385	      0.00000000	      2.91877213	      2.45359212	      3.98721272	      3.99435164	      2.23860030	      1.55603218	      3.65588289	      5.55571220	      4.14719499	     22.64706682	     12.96625287	      3.62648756	      2.85422995	      4.08978796	     10.79438599	      6.91195833	      7.00655793	      8.89373935	      5.50259517	      2.92832324	      9.05654701	     13.47941920	      2.95046026	      2.35134291	     17.36337557	      4.07595187	      8.43195771	     11.50429440	      9.72650932	      2.54520299	      7.54752048	      5.66545668	      6.06439470	      2.65880173	      3.17880148	      3.19256017	      8.74462366	      4.08300400	      7.68238002	      7.21564908	      1.51966692	      5.61298385	      4.14085443	      2.91877213	      2.45359212	      3.98721272	      4.09687017	      2.23860030	      1.55862266	      3.65588289	      5.55571220	      4.14719499	     22.64706682	     12.96625287	      3.62648756	      2.85422995	      4.08978796	     10.66652323	      6.59233041	      7.56192243	      8.13111211	     13.95230474	      6.47837577	     31.08508885	     42.35872093	      2.57814353	      2.83766221	      8.45131167	      4.33375701	     12.44608531	      2.00579137	      5.36491430	      1.70280498	     25.00532664	     25.00532664	      8.99965556	      8.99965556	     26.80429970	     26.80429970	      2.76307435	     50.99597937	     -9.56042239	      5.21997485	     -0.02578839	      1.48581788	     -2.76307435	    -50.99597937	      9.56042239	     -1.74637766	      0.02558040	     -0.48301696	     -3.31599387	     20.97615968	     -3.40468921	      0.94473225	     -0.02138609	     -1.00501789	      3.31599387	    -20.97615968	      3.40468921	      0.28075727	      0.00368718	     -0.29758878	     27.50210183	     91.22039649	     18.65509980	     -9.97658930	      0.62426904	     11.64101788	    -27.50210183	    -91.22039649	    -18.65509980	      3.12302365	     -0.78854968	     -0.73390899	     44.06784763	     86.22337924	     -1.54817957	      2.42073789	     -0.90085067	     18.73223888	    -44.06784763	    -86.22337924	      1.54817957	     -1.48973122	      0.73547938	     -1.44187439	      0.00000000	      0.00000000	      0.00000000	      0.00000000	      0.00000000	      0.00000000	      0.00000000	      0.00000000	      0.00000000	      0.00000000	      0.00000000	      0.00000000	      0.00000000	      0.00000000	      0.00000000	      0.00000000	      0.00000000	      0.00000000	      0.00000000	      0.00000000	      0.00000000	      0.00000000	      0.00000000	      0.00000000	      0.00000000	      0.00000000	      0.00000000	      0.00000000	      0.00000000	      0.00000000	      0.00000000	      0.00000000	      0.00000000	      0.00000000	      0.00000000	      0.00000000	      0.00000000	      0.00000000	      0.00000000	      0.00000000	      0.00000000	      0.00000000	      0.00000000	      0.00000000	      0.00000000	      0.00000000	      0.00000000	      0.00000000	      9.16882476	     66.24380632	      0.00000000	      0.00000000	      0.00000000	      8.38336919	     24.25472608	      1.98348992	      0.00000000	      4.37908737	      0.00000000	      0.00000000	      0.00000001	      0.00000000	    110.00000000	      0.00000000	      0.00000000
      0.75205545	      7.54748600	      5.66543292	      6.06436895	      2.65879105	      3.17878993	      3.19254561	      8.89359043	      4.07605880	      7.94157264	      7.28315404	      0.00000000	      5.61296003	      0.00000000	      2.91875998	      2.45358166	      3.98719389	      3.99466750	      2.23859125	      1.55598457	      3.65586757	      5.55568885	      4.14717724	     22.64702374	     12.96620444	      3.62647268	      2.85422299	      4.08975995	     10.79424962	      6.91055990	      7.00437985	      8.89187223	      5.51696481	      2.93853646	      9.07592602	     13.51084495	      2.95186134	      2.34666847	     17.35648116	      4.07277849	      8.43535805	     11.49704032	      9.75862185	      2.55064337	      7.54748600	      5.66543292	      6.06436895	      2.65879105	      3.17878993	      3.19254561	      8.74457336	      4.08298552	      7.68233820	      7.21561945	      1.51966085	      5.61296003	      4.14083795	      2.91875998	      2.45358166	      3.98719389	      4.09685853	      2.23859125	      1.55861632	      3.65586757	      5.55568885	      4.14717724	     22.64702374	     12.96620444	      3.62647268	      2.85422299	      4.08975995	     10.66646633	      6.59230213	      7.56188936	      8.13107674	     13.95217233	      6.47831416	     31.08487661	     42.35863819	      2.57703414	      2.83715493	      8.45126887	      4.33373130	     12.44602170	      2.00578386	      5.36544234	      1.70294821	     25.00522598	     25.00522598	      8.99961610	      8.99961610	     26.80426426	     26.80426426	      2.76307435	     50.99597937	     -9.56042239	      5.21997485	     -0.02578839	      1.48581788	     -2.76307435	    -50.99597937	      9.56042239	     -1.74637766	      0.02558040	     -0.48301696	     -3.31599387	     20.97615968	     -3.40468921	      0.94473225	     -0.02138609	     -1.00501789	      3.31599387	    -20.97615968	      3.40468921	      0.28075727	      0.00368718	     -0.29758878	     27.25944967	     91.22806991	     18.66492457	     -9.98091404	      0.61928124	     11.53846700	    -27.25944967	    -91.22806991	    -18.66492457	      3.12348567	     -0.78263300	     -0.72502983	     44.07433667	     86.38655014	     -1.49347908	      2.40097963	     -0.90106584	     18.73522186	    -44.07433667	    -86.38655014	      1.49347908	     -1.49056228	      0.73554595	     -1.44181002	      0.00000000	      0.00000000	      0.00000000	      0.00000000	      0.00000000	      0.00000000	      0.00000000	      0.00000000	      0.00000000	      0.00000000	      0.00000000	      0.00000000	      0.00000000	      0.00000000	      0.00000000	      0.00000000	      0.00000000	      0.00000000	      0.00000000	      0.00000000	      0.00000000	      0.00000000	      0.00000000	      0.00000000	      0.00000000	      0.00000000	      0.00000000	      0.00000000	      0.00000000	      0.00000000	      0.00000000	      0.00000000	      0.00000000	      0.00000000	      0.00000000	      0.00000000	      0.00000000	      0.00000000	      0.00000000	      0.00000000	      0.00000000	      0.00000000	      0.00000000	      0.00000000	      0.00000000	      0.00000000	      0.00000000	      0.00000000	      9.07384536	     66.16505835	      0.00000000	      0.00000000	      0.00000000	      8.19309489	     24.06248857	      1.80047393	      0.00000000	      4.19497589	      0.00000000	      0.00000000	      0.00000001	      0.00000000	    110.00000000	      0.00000000	      0.00000000
      0.75426119	      7.54743097	      5.66539500	      6.06432786	      2.65877401	      3.17877150	      3.19252238	      8.88931677	      4.07437765	      7.94107496	      7.27687859	      0.00000000	      5.61292203	      0.00000000	      2.91874059	      2.45356497	      3.98716384	      3.99450026	      2.23857681	      1.55536237	      3.65584312	      5.55565158	      4.14714891	     22.64695499	     12.96612717	      3.62644893	      2.85421188	      4.08971525	     10.79060499	      6.90278718	      6.99429950	      8.88071767	      5.53739316	      2.95396599	      9.10537362	     13.56792722	      2.95431279	      2.34116459	     17.34808453	      4.06538613	      8.43782396	     11.48345411	      9.80969255	      2.55833254	      7.54743097	      5.66539500	      6.06432786	      2.65877401	      3.17877150	      3.19252238	      8.74449309	      4.08295604	      7.68227146	      7.21557217	      1.51965115	      5.61292203	      4.14081165	      2.91874059	      2.45356497	      3.98716384	      4.09683995	      2.23857681	      1.55860620	      3.65584312	      5.55565158	      4.14714891	     22.64695499	     12.96612717	      3.62644893	      2.85421188	      4.08971525	     10.66637552	      6.59225700	      7.56183660	      8.13102030	     13.95196098	      6.47821584	     31.08453792	     42.35850616	      2.57521709	      2.83632597	      8.45120057	      4.33369027	     12.44592017	      2.00577187	      5.36630754	      1.70318262	     25.00506535	     25.00506535	      8.99955314	      8.99955314	     26.80420771	     26.80420771	      2.76307435	     50.99597937	     -9.56042239	      5.21997485	     -0.02578839	      1.48581788	     -2.76307435	    -50.99597937	      9.56042239	     -1.74637766	      0.02558040	     -0.48301696	     -3.31599387	     20.97615968	     -3.40468921	      0.94473225	     -0.02138609	     -1.00501789	      3.31599387	    -20.97615968	      3.40468921	      0.28075727	      0.00368718	     -0.29758878	     27.27871890	     91.09357899	     18.62101810	     -9.95911556	      0.61958746	     11.54665634	    -27.27871890	    -91.09357899	    -18.62101810	      3.11795476	     -0.78283407	     -0.72615129	     44.14714017	     86.50886692	     -1.55255649	      2.42897174	     -0.90221393	     18.76643620	    -44.14714017	    -86.50886692	      1.55255649	     -1.49542843	      0.73668227	     -1.44448244	      0.00000000	      0.00000000	      0.00000000	      0.00000000	      0.00000000	      0.00000000	      0.00000000	      0.00000000	      0.00000000	      0.00000000	      0.00000000	      0.00000000	      0.00000000	      0.00000000	      0.00000000	      0.00000000	      0.00000000	      0.00000000	      0.00000000	      0.00000000	      0.00000000	      0.00000000	      0.00000000	      0.00000000	      0.00000000	      0.00000000	      0.00000000	      0.00000000	      0.00000000	      0.00000000	      0.00000000	      0.00000000	      0.00000000	      0.00000000	      0.00000000	      0.00000000	      0.00000000	      0.00000000	      0.00000000	      0.00000000	      0.00000000	      0.00000000	      0.00000000	      0.00000000	      0.00000000	      0.00000000	      0.00000000	      0.00000000	      9.17183755	     66.28854896	      0.00000000	      0.00000000	      0.00000000	      8.35322875	     24.21644084	      1.96523127	      0.00000000	      4.36671743	      0.00000000	      0.00000000	      0.00000001	      0.00000000	    110.00000000	      0.00000000	      0.00000000
